<svg width="28" height="28" viewBox="0 0 28 28" xmlns="http://www.w3.org/2000/svg" role="img" aria-label="MorrDigital">
  <defs><linearGradient id="g" x1="0" y1="0" x2="1" y2="1"><stop offset="0" stop-color="#7dd3fc"/><stop offset="1" stop-color="#5eead4"/></linearGradient></defs>
  <rect rx="7" width="28" height="28" fill="#0f1318" stroke="#1c222b"/>
  <path d="M6 19V9h3.2l2 3.7L13.9 9h3.1v10h-3v-6.2l-1.7 3.1H11l-1.8-3V19H6zm12.8 0v-3.2h2.2c1.3 0 2.1.7 2.1 1.6 0 .9-.8 1.6-2.1 1.6h-2.2zM18.8 9h2.1c1.2 0 2 .7 2 1.6 0 .9-.8 1.6-2 1.6h-2.1V9z" fill="url(#g)"/>
</svg>